<?xml version="1.0" standalone="no"?>
<!DOCTYPE svg PUBLIC "-//W3C//DTD SVG 20010904//EN"
 "http://www.w3.org/TR/2001/REC-SVG-20010904/DTD/svg10.dtd">
<svg version="1.0" xmlns="http://www.w3.org/2000/svg"
 width="45.000000pt" height="39.000000pt" viewBox="0 0 45.000000 39.000000"
 preserveAspectRatio="xMidYMid meet">

<g transform="translate(0.000000,39.000000) scale(0.100000,-0.100000)"
fill="#000000" stroke="none">
<path d="M69 291 c-20 -20 -29 -40 -29 -61 0 -56 73 -103 108 -68 22 22 27 -3
7 -39 -12 -21 -37 -45 -59 -57 -22 -11 -34 -22 -28 -24 24 -8 102 48 122 88
63 123 -32 249 -121 161z"/>
<path d="M314 308 c-47 -22 -58 -101 -21 -136 27 -26 54 -28 85 -6 20 14 22
14 22 -3 0 -34 -43 -85 -89 -104 -13 -5 -21 -12 -18 -15 11 -11 74 25 104 59
89 101 25 258 -83 205z"/>
</g>
</svg>
